<svg aria-hidden="true" style="position:absolute;width:0;height:0" xmlns="http://www.w3.org/2000/svg" overflow="hidden"><defs>

<!-- Вконтакте -->
<symbol id="icon-vk-icon" viewBox="0 0 32 32"><path fill="var(--color1, #436eab)" d="M27.541 18.46c1.061 1.036 2.182 2.011 3.134 3.152.421.507.819 1.03 1.123 1.619.432.836.041 1.757-.709 1.807l-4.662-.002c-1.202.1-2.162-.384-2.968-1.206-.645-.657-1.243-1.357-1.864-2.037-.255-.278-.521-.539-.839-.746-.636-.413-1.189-.287-1.552.377-.37.675-.454 1.423-.491 2.175-.05 1.098-.382 1.386-1.484 1.437-2.357.111-4.593-.245-6.671-1.434-1.832-1.048-3.252-2.528-4.489-4.203-2.407-3.261-4.25-6.845-5.907-10.53-.373-.83-.1-1.276.816-1.291 1.521-.03 3.041-.027 4.564-.002.618.009 1.027.364 1.266.947.823 2.023 1.83 3.948 3.093 5.732.337.475.68.95 1.168 1.284.541.37.952.248 1.207-.355.161-.382.232-.793.268-1.202.121-1.407.136-2.812-.075-4.214-.13-.875-.623-1.442-1.496-1.607-.446-.084-.379-.25-.164-.505.375-.439.727-.712 1.43-.712h5.269c.829.164 1.014.536 1.127 1.371l.004 5.852c-.009.323.161 1.282.743 1.496.466.152.773-.22 1.052-.516 1.261-1.339 2.162-2.921 2.966-4.559.357-.72.664-1.469.961-2.216.22-.555.566-.828 1.191-.816l5.071.005c.15 0 .302.002.448.027.855.146 1.089.513.825 1.348-.416 1.309-1.225 2.4-2.016 3.496-.846 1.17-1.75 2.3-2.589 3.477-.77 1.075-.709 1.617.248 2.55z"/></symbol>

<!-- Телефон -->
<symbol id="icon-phone" viewBox="0 0 32 32"><path fill="var(--color2, #ff6b09)" d="M4.657.002a2.002 2.002 0 00-1.392.651L.67 3.505c.004-.008-.01-.007-.084.097a.624.624 0 00-.09.176C-.56 7.142.148 10.842 1.872 14.362s4.475 6.888 7.633 9.651c3.158 2.764 6.721 4.926 10.119 5.999s6.692 1.058 9.133-.713a.759.759 0 00.131-.127l.01-.012 2.582-2.84a2.02 2.02 0 00-.134-2.84l-6.126-5.571a2.02 2.02 0 00-2.84.133l-2.772 3.048c-2.25-.652-4.173-1.756-6.023-3.439s-3.132-3.494-3.993-5.673l2.771-3.048a2.02 2.02 0 00-.133-2.84L6.104.519A2.008 2.008 0 004.656.001h-.001zm.058 1.251a.75.75 0 01.541.201l6.126 5.571a.736.736 0 01.05 1.061l-3.063 3.366a.632.632 0 00-.124.639c.93 2.537 2.429 4.618 4.493 6.495s4.275 3.174 6.889 3.859c.111.029.228.027.339-.005s.21-.095.287-.18l3.064-3.367a.736.736 0 011.06-.049l6.127 5.571a.735.735 0 01.049 1.06l-2.561 2.815c-2.003 1.438-4.826 1.519-7.986.521-3.173-1.002-6.617-3.076-9.666-5.744s-5.702-5.926-7.332-9.254C1.394 10.519.809 7.189 1.696 4.254l2.502-2.75a.747.747 0 01.52-.251z"/></symbol>

<!-- How we do -->
<symbol id="icon-how-audio-book" viewBox="0 0 39 32"><path d="M3.048 29.453h12.23a3.738 3.738 0 003.38 2.116h.772c1.465 0 2.761-.83 3.381-2.116h12.237a2.289 2.289 0 002.286-2.286V5.262a2.289 2.289 0 00-2.286-2.286h-1.234V1.955c0-.84-.684-1.524-1.524-1.524H5.799c-.84 0-1.524.683-1.524 1.524v1.021H3.048A2.289 2.289 0 00.762 5.262v21.905a2.289 2.289 0 002.286 2.286zm29.24-4.701H19.81V7.047c2.884.377 5.121 2.845 5.121 5.831v.687l-.181-.04a.759.759 0 00-.908.58l-1.213 5.519c-.09.41.17.816.58.907l2.621.578a1.946 1.946 0 002.319-1.491l.702-3.192a1.954 1.954 0 00-1.484-2.324l-.912-.201v-1.023c0-3.827-2.917-6.986-6.644-7.37V1.957h12.48l-.001 22.796zm-7.122-9.575l1.871.412a.422.422 0 01.325.508l-.702 3.191a.45.45 0 01-.507.331l-1.874-.413.886-4.03zM5.798 1.956h12.487v3.55c-3.731.381-6.652 3.541-6.652 7.371v1.022l-.914.202a1.935 1.935 0 00-1.222.854c-.28.439-.373.961-.26 1.468l.7 3.188a1.96 1.96 0 002.325 1.495l2.61-.577a.762.762 0 00.58-.907l-1.213-5.519c-.043-.198-.164-.37-.334-.478s-.378-.144-.574-.102l-.174.038v-.686c0-2.988 2.24-5.458 5.128-5.832v17.706H5.798V1.953zm7.118 13.221l.887 4.029-1.863.411a.433.433 0 01-.512-.328l-.702-3.196a.42.42 0 01.323-.506l1.867-.412zM2.286 5.262c0-.42.341-.762.762-.762h1.227v20.252c0 .84.684 1.524 1.524 1.524H32.29c.84 0 1.524-.683 1.524-1.524V4.5h1.234c.42 0 .762.342.762.762v21.905c0 .42-.342.762-.762.762H22.294a.76.76 0 00-.728.538 2.22 2.22 0 01-2.135 1.577h-.772a2.229 2.229 0 01-2.138-1.586.762.762 0 00-.725-.529H3.049a.763.763 0 01-.762-.762V5.262z"/></symbol>

<symbol id="icon-how-group" viewBox="0 0 33 32"><path d="M1.993 12.558v2.831a.5.5 0 00.189.39 11.099 11.099 0 006.837 2.362c.74 0 1.482-.077 2.206-.224a12.01 12.01 0 004.89 1.032c1.707 0 3.351-.349 4.89-1.032 3.091.624 6.384-.046 9.042-2.138a.495.495 0 00.189-.39v-2.831a1.2 1.2 0 00-.575-1.027l-3.867-2.176c.846-1.073 1.476-2.602 1.586-3.913.321-2.256-1.518-4.646-4.165-4.646a4.208 4.208 0 00-2.948 1.227c-.027.027-.058.049-.084.076-.024.025-.043.054-.067.08-.016.017-.029.036-.044.053C19.315.852 17.861 0 16.148 0c-.166 0-.33.011-.492.028-.01-.001-.018-.006-.028-.006-.092 0-.287.024-.391.054-.015.004-.026.015-.041.021a4.485 4.485 0 00-3.013 2.156A4.176 4.176 0 009.004.796c-3.908 0-5.642 4.612-2.557 8.581l-3.903 2.167a1.192 1.192 0 00-.553 1.014zm19.003 4.27c-.084.041-.167.085-.251.123l-.002.001a11.007 11.007 0 01-4.627 1.006 11.026 11.026 0 01-6.674-2.228v-2.87c0-.098.047-.184.102-.221l4.542-2.524c.565.48 1.287.832 2.035.832.721 0 1.499-.357 2.052-.843l4.487 2.52c.083.053.13.139.13.237v2.87c-.571.429-1.173.795-1.794 1.098zm8.158-4.446a.201.201 0 01.092.176v2.587a9.988 9.988 0 01-6.737 1.98c.369-.23.771-.516 1.083-.76a.496.496 0 00.19-.39v-3.114c0-.435-.218-.835-.61-1.087l-2.383-1.339.58-.321c.703.573 1.307.744 1.848.744.662 0 1.36-.325 1.878-.759l4.06 2.284zM23.216 1.788c1.38 0 2.593.902 3.021 2.142A3.703 3.703 0 0124 2.788a.494.494 0 00-.788.084 3.684 3.684 0 01-2.548 1.76v-.003a4.786 4.786 0 00-.162-1.329c.563-.902 1.609-1.513 2.713-1.513zm-2.66 3.856a4.642 4.642 0 003.164-1.762 4.684 4.684 0 002.702 1.056c-.007 1.792-1.471 4.927-3.206 4.927-1.337 0-2.479-1.912-2.905-3.238a8.15 8.15 0 00.245-.983zm.101 3.729l-.886.491-.895-.502c.332-.413.636-.893.896-1.413.25.526.55 1.01.884 1.425zM19.32 6.465c-.478 1.427-1.705 3.49-3.199 3.49-1.742 0-3.226-2.864-3.509-4.696.075-.019 2.43.126 4.05-2.001.822.688 1.932 1.143 3.011 1.188.013.647-.144 1.406-.352 2.018zM16.15.992c2.78 0 3.309 2.392 3.352 2.442a4.123 4.123 0 01-2.563-1.276.497.497 0 00-.789.087 4.073 4.073 0 01-3.58 2.022c.136-1.822 1.596-3.274 3.58-3.274zm-3.689 6.946c.257.515.563 1.006.913 1.438l-.875.487-.907-.51a7.76 7.76 0 00.87-1.415zm-3.455-6.15c1.125 0 2.155.571 2.729 1.514-.029.1-.106.498-.117.548a3.675 3.675 0 01-1.821-1.062.496.496 0 00-.788.086 3.712 3.712 0 01-3.177 1.815c.158-1.627 1.518-2.9 3.174-2.9zm-3.13 3.89a4.711 4.711 0 003.643-1.796 4.624 4.624 0 002.055.961c.029.575.179 1.273.35 1.789-.274.84-.799 1.841-1.451 2.505l-.014.01c-.408.43-.988.719-1.444.719-1.594 0-2.841-2.508-3.14-4.188zm-2.891 6.88c0-.075.033-.139.067-.162l4.116-2.284c.247.206.304.229.353.265.484.322.928.482 1.534.482.645 0 1.232-.273 1.749-.694.029-.023.06-.045.088-.068l.587.33-2.446 1.361a1.269 1.269 0 00-.584 1.071v3.114c0 .152.07.296.19.39.317.249.727.539 1.083.761a10.024 10.024 0 01-6.737-1.98v-2.587z"/><path d="M31.259 20.781a2.063 2.063 0 00-2.007-.11l-6.119 2.956a2.111 2.111 0 00-2.107-2.072l-3.509.001c-1.73-1.504-3.941-2.425-5.952-2.473-1.983-.047-3.763-.06-4.593-.064v-1.002H0v11.517h6.972v-1.379C8.884 29.252 13.911 32 16.297 32c.054 0 .107-.001.158-.004 4.196-.235 14.091-7.198 14.743-7.661a2.08 2.08 0 001.034-1.796c0-.719-.364-1.376-.973-1.758zM5.98 28.542H.992v-9.533H5.98v9.533zm24.707-5.058a.296.296 0 00-.044.028c-.102.073-10.281 7.271-14.244 7.494a2.354 2.354 0 01-.121.003c-2.092 0-7.194-2.753-9.307-4.001v-6.997c.827.004 2.597.017 4.569.064 1.837.044 3.876.921 5.456 2.346l.141.128 3.887-.001c.617 0 1.119.502 1.119 1.119s-.502 1.119-1.119 1.119h-7.142v.992h7.142c.684 0 1.288-.333 1.674-.839l6.984-3.373c.343-.167.725-.146 1.049.057s.508.537.508.918c0 .391-.212.753-.553.945zM16.612 12.158h-.992v.92h.992v-.92zM16.612 13.992h-.992v.92h.992v-.92zM16.612 15.826h-.992v.92h.992v-.92z"/></symbol>

<symbol id="icon-how-mobile" viewBox="0 0 33 32"><path d="M30.175-.128H14.429a1.861 1.861 0 00-1.859 1.859v6.518L.872 13.159a.38.38 0 00-.049.678l1.492.893v9.515A1.719 1.719 0 00.98 25.919v.917c0 .21.171.381.381.381h2.671c.21 0 .381-.171.381-.381v-.917a1.72 1.72 0 00-1.336-1.673v-9.06l1.18.706c-.036.272-.005-.474-.017 4.43 0 1.612 4.129 2.476 8.33 2.525v7.425a1.858 1.858 0 001.858 1.856h15.746a1.859 1.859 0 001.857-1.857c0 .051-.002-1.573 0-28.54a1.87 1.87 0 00-1.856-1.859zM3.652 25.918v.536H1.743v-.536a.955.955 0 111.909 0zm26.523 5.446H14.429a1.096 1.096 0 01-1.096-1.094v-2.574h17.934v2.575c0 .597-.497 1.092-1.092 1.092zm1.092-4.429H13.332v-4.086c2.051-.023 8.335-.475 8.335-2.527-.002-3.081.005-4.33-.01-4.436l3.421-2.049a.382.382 0 00-.049-.678l-11.698-4.91V5.067h17.935v21.868zm-18.316-9.143c-2.113 0-6.182.273-7.949 1.427.011-3.53-.122-3.3.312-3.6 1.098-.809 4.238-1.373 7.637-1.373 1.482 0 7.954.408 7.954 1.778v3.195c-1.784-1.165-5.832-1.428-7.954-1.428zm.382-16.061c0-.604.491-1.095 1.095-1.095h15.746c.604 0 1.093.498 1.093 1.095v2.574H13.333V1.731zm-.382 7.184l11.09 4.655-2.748 1.644c-1.461-1.449-6.293-1.73-8.342-1.73-2.051 0-6.884.282-8.342 1.73L1.86 13.569l11.091-4.655zM5.002 20.321c0-.617 2.73-1.767 7.949-1.767 5.222 0 7.954 1.151 7.954 1.767s-2.732 1.768-7.954 1.768c-5.219 0-7.949-1.151-7.949-1.768z"/><path d="M22.301 28.271a1.261 1.261 0 000 2.52 1.261 1.261 0 000-2.52zm0 1.759a.499.499 0 11.002-.998.499.499 0 01-.002.998zM23.754 2.09h-2.906v.762h2.906V2.09z"/></symbol>

<symbol id="icon-how-open-book" viewBox="0 0 46 32"><path d="M20.267 4.608H6.627v1.021h13.64V4.608zM20.267 8.416H8.67v1.021h11.597V8.416zM20.267 12.224H6.627v1.021h13.64v-1.021zM20.267 16.032H8.67v1.021h11.597v-1.021zM20.267 19.84H6.627v1.021h13.64V19.84zM20.267 23.648H8.67v1.021h11.597v-1.021zM38.99 4.608H25.35v1.021h13.64V4.608zM36.947 8.416H25.35v1.021h11.597V8.416zM38.99 12.224H25.35v1.021h13.64v-1.021zM36.947 16.032H25.35v1.021h11.597v-1.021zM38.99 19.84H25.35v1.021h13.64V19.84zM36.947 23.648H25.35v1.021h11.597v-1.021z"/><path d="M43.915 3.445h-1.872V.633a.511.511 0 00-.511-.511H26.267c-1.49 0-2.781.805-3.458 2.011A3.95 3.95 0 0019.35.122H4.085a.511.511 0 00-.511.511v2.812H1.702a.511.511 0 00-.511.511v27.411c0 .282.229.511.511.511h42.213a.511.511 0 00.511-.511V3.956a.511.511 0 00-.511-.511zM26.267 1.144h14.754v27.35H25.178c-.702 0-1.404.296-1.859.68V4.085a2.932 2.932 0 012.948-2.942zm-21.671 0H19.35a2.924 2.924 0 012.942 2.829c.001.022.003.091.006.112v25.087a2.993 2.993 0 00-1.852-.678H4.596V1.144zM2.213 4.467h1.362v24.538c0 .282.229.511.511.511h16.361c.778 0 1.531.511 1.771 1.341H2.213V4.467zm41.191 26.389H23.4a1.845 1.845 0 011.778-1.341h16.354a.511.511 0 00.511-.511V4.466h1.362v26.39z"/></symbol>

<symbol id="icon-how-student" viewBox="0 0 27 32"><path d="M-.103 31.759h26.785c.133-3.055-.086-8.122-1.964-10.535l-.068-.087-4.104-2.061c.089-.301.133-.576.151-.778a1.43 1.43 0 00-.1-.678c-.677-1.62-2.11-2.472-2.898-2.836.24-.484.395-1.003.47-1.534.446-.126.805-.479.923-.951l.479-1.946a1.314 1.314 0 00-.151-1.002 1.31 1.31 0 00-.294-.334c1.351-3.068-.911-5.96-1.035-6.113C15.641.255 12.546.751 12.383.78c-4.466.935-6.19 4.358-5.217 8.372a1.317 1.317 0 00-.302 1.2l.481 1.948c.117.468.473.82.916.948a5.014 5.014 0 001.152 2.559v1.543c-6.409 3.282-2.348 1.188-7.484 3.786-.01.049-2.41 2.599-2.053 10.159l.022.462zm25.854-.97h-4.408v-1.852l2.916-6.674c1.461 2.424 1.515 7.053 1.493 8.526zm-6.016-12.573c-.17 1.954-1.242 1.364-1.903 2.869-.52-.572-.677-1.258-.537-1.993.253-1.349-.57-1.749-.367-3.166l.031-.032v-.005c.017-.02.18-.213.227-.274 1.744.76 2.584 2.174 2.55 2.6zm-9.356-1.536a4.963 4.963 0 005.574.074c.112 1.114.547 1.337.393 2.157a3.536 3.536 0 00-.054.45l-3.002 3.384-3.838-4.327.926-.484V16.68zm-1.207-4.14v-1.876-3.296c.467-.864 1.104-1.491 1.896-1.867 2.12 1.2 4.56 2.99 6.197 4.791-.002 2.294.006 2.301-.009 2.489l-.001.012c-.128 2.084-1.841 3.811-4.038 3.811-2.136 0-3.909-1.677-4.037-3.831a2.578 2.578 0 01-.008-.233zm-.598 6.346l4.716 5.317 3.166-3.569c.072.208.174.405.29.595l-3.456 4.322-5.154-6.446.438-.22zm9.656-7.127v-1.498l.36-.413c.02.758.102-.137-.36 1.911zM12.562 1.734c.192.012 2.765-.391 4.799 1.804.08.1 1.736 2.234 1.071 4.567-.228-1.038-.625-2.369-1.252-3.004l-.686.683c.619.627 1.026 2.537 1.181 3.527-2.84-2.972-6.504-4.853-6.555-4.885-.184.114-1.734.409-2.86 2.598l-.054.105v1.607l-.142.002c-.715-3.454.655-6.198 4.497-7.004zm-4.6 8.002l.244.987v1.038l-.405-1.639c-.059-.244.122-.337.161-.386zm-.71 9.814l6.037 7.551 4.085-5.109c.444.398.658.454 1.6.939l-.318-1.078c-.081-.274.239-.713.431-.914.43-.233.789-.566 1.058-.977l3.333 1.674-3.101 7.1v2.055H6.201v-2.055l-3.103-7.099 4.153-2.085zM2.32 22.265l2.916 6.673v1.852H.828c-.022-1.473.033-6.099 1.492-8.524z"/></symbol>

<symbol id="icon-how-study-program" viewBox="0 0 31 32"><path d="M30.151 4.961l-.001-.002a.32.32 0 00-.06-.09L25.284.063a.258.258 0 00-.041-.033l-.009-.006c-.012-.007-.024-.014-.036-.019L25.187 0a.277.277 0 00-.099-.02H3.912a.284.284 0 00-.284.284v29.311c0 .019.002.037.006.056l.007.023.009.03.014.026.013.023c.01.014.021.028.033.04l.003.003 2.165 2.164c.111.111.29.111.402 0l1.964-1.963 1.964 1.963c.055.056.128.083.201.083s.145-.027.201-.083l1.963-1.963 1.965 1.963a.284.284 0 00.402 0l1.963-1.963 1.963 1.963a.283.283 0 00.401 0l1.965-1.963 1.964 1.963c.055.056.128.083.201.083s.145-.027.201-.083l1.963-1.963 1.965 1.963a.283.283 0 00.401 0l2.165-2.164.011-.014.024-.029c.007-.01.011-.02.016-.03.003-.007.007-.012.009-.019.006-.013.009-.026.012-.039a.07.07 0 01.005-.013.278.278 0 00.006-.058V5.071a.296.296 0 00-.023-.109zM25.367.949l3.836 3.835h-3.836V.949zm4.237 28.507l-1.88 1.88-1.965-1.963a.283.283 0 00-.401 0l-1.963 1.963-1.963-1.963a.284.284 0 00-.402 0l-1.965 1.963-1.963-1.962v-.001a.284.284 0 00-.402 0l-1.963 1.963-1.965-1.963a.284.284 0 00-.402 0l-1.963 1.963-1.964-1.963a.284.284 0 00-.402 0l-1.965 1.963-1.88-1.88V.547h20.603v4.522c0 .157.127.284.284.284h4.521v24.103z"/><path d="M6.314 3.234h9.303a.284.284 0 100-.568H6.314a.284.284 0 100 .568zM6.314 4.991h14.919a.284.284 0 100-.568H6.314a.284.284 0 100 .568zM6.03 6.568v9.199c0 .157.127.284.284.284h21.172a.284.284 0 00.284-.284V6.568a.284.284 0 00-.284-.284H6.314a.284.284 0 00-.284.284zm6.278.284h14.893v2.445H12.308V6.852zm0 3.013h14.893v2.444H12.308V9.865zm0 3.012h14.893v2.605H12.308v-2.605zm-5.71-6.025h5.142v2.445H6.598V6.852zm0 3.013h5.142v2.444H6.598V9.865zm0 3.012h5.142v2.605H6.598v-2.605zM27.486 17.329H6.314a.284.284 0 00-.284.284v9.198a.284.284 0 10.568 0v-2.889h5.142v2.889a.284.284 0 10.568 0v-2.889h14.893v2.889a.284.284 0 10.568 0v-9.198a.282.282 0 00-.283-.284zM11.74 23.354H6.598V20.91h5.142v2.444zm0-3.012H6.598v-2.444h5.142v2.444zm15.461 3.012H12.308V20.91h14.893v2.444zm0-3.012H12.308v-2.444h14.893v2.444zM2.281-.021a.284.284 0 00-.284.284v29.311a.284.284 0 10.568 0V.263a.284.284 0 00-.284-.284zM.718-.021a.284.284 0 00-.284.284v29.311a.284.284 0 10.568 0V.263a.284.284 0 00-.284-.284z"/></symbol>

<!-- Лого -->
<symbol id="icon-logo-black" viewBox="0 0 88 32"><path fill="var(--color4, #111518)" d="M12.345 4.848v12.975h-3.67v-5.06H3.67v5.06H0V4.848h3.67v4.875h5.005V4.848h3.67zM25.777 12.818c0 .025-.019.315-.056.871h-7.303c.148.519.433.921.853 1.205.433.272.97.408 1.613.408.482 0 .896-.068 1.242-.204a3.646 3.646 0 001.075-.667l1.854 1.928c-.976 1.087-2.403 1.631-4.282 1.631-1.174 0-2.206-.222-3.096-.667s-1.582-1.063-2.076-1.854c-.482-.791-.723-1.687-.723-2.688 0-.989.235-1.872.704-2.651.482-.791 1.143-1.409 1.983-1.854s1.786-.667 2.836-.667c1.001 0 1.909.21 2.725.63a4.586 4.586 0 011.928 1.798c.482.778.723 1.705.723 2.78zm-5.357-2.706c-.544 0-1.001.154-1.372.463-.358.309-.587.729-.686 1.26h4.115c-.099-.531-.334-.951-.704-1.26-.358-.309-.809-.463-1.353-.463zM28.142 4.069h3.522v13.753h-3.522V4.069zM34.694 4.069h3.522v13.753h-3.522V4.069zM3.328 29.8H1.474l-.354.855H.173l1.779-3.992h.913l1.785 3.992h-.97l-.354-.855zm-.291-.702l-.633-1.528-.633 1.528h1.266zM10.358 29.902v1.58h-.855v-.827H6.686v.827H5.83l.006-1.58h.16c.24-.008.409-.183.508-.525s.16-.831.183-1.466l.046-1.249h3.068v3.239h.559zm-2.857-1.905a8.441 8.441 0 01-.12 1.198c-.061.319-.154.555-.279.707h1.785v-2.487H7.518l-.017.582zM13.895 30.724c-.407 0-.776-.087-1.106-.262a2.041 2.041 0 01-.776-.736c-.186-.316-.28-.671-.28-1.066s.093-.749.28-1.061c.19-.316.449-.561.776-.736a2.3 2.3 0 011.112-.268c.346 0 .658.061.935.183.281.122.517.297.707.525l-.593.548a1.274 1.274 0 00-1.004-.468 1.32 1.32 0 00-.662.165 1.15 1.15 0 00-.456.451c-.106.194-.16.414-.16.662s.053.468.16.662c.11.194.262.346.456.456.194.106.414.16.662.16.399 0 .734-.158 1.004-.473l.593.548c-.19.232-.426.409-.707.53s-.595.183-.941.183zM18.717 29.047h-.639v1.608h-.918v-3.992h.918v1.614h.662l1.049-1.614h.975l-1.306 1.928 1.346 2.065h-1.049l-1.038-1.608zM22.264 26.663h.918v2.601l1.905-2.601h.867v3.992h-.913V28.06l-1.905 2.595h-.873v-3.992zM27.975 26.663h.918v2.601l1.905-2.601h.867v3.992h-.913V28.06l-1.905 2.595h-.873v-3.992zm1.842-.257c-.73 0-1.099-.291-1.106-.873h.633c.008.278.165.416.473.416.152 0 .268-.034.348-.103.08-.072.122-.177.126-.314h.633c-.004.285-.097.502-.279.65s-.458.222-.827.222zM39.031 29.8h-1.854l-.354.855h-.947l1.779-3.992h.912l1.785 3.992h-.969l-.354-.855zm-.291-.702l-.633-1.528-.633 1.528h1.266zM45.571 26.663v3.992h-.924v-1.637h-1.814v1.637h-.924v-3.992h.924v1.574h1.814v-1.574h.924zM50.41 27.416h-1.899l.006 3.239h-.918v-3.992h2.817l-.006.753zM55.069 26.663v3.992h-.913v-3.239h-1.369l-.028.833a8.581 8.581 0 01-.137 1.38c-.072.35-.194.62-.365.81-.167.186-.403.279-.707.279-.125 0-.278-.021-.456-.063l.057-.781a.567.567 0 00.165.023c.221 0 .374-.129.462-.388.087-.262.143-.671.165-1.226l.057-1.62h3.068zM57.092 26.663h.918v2.601l1.905-2.601h.867v3.992h-.913V28.06l-1.905 2.595h-.873v-3.992zM62.803 26.663h.918v2.601l1.905-2.601h.867v3.992h-.913V28.06l-1.905 2.595h-.873v-3.992zm1.842-.257c-.73 0-1.099-.291-1.107-.873h.633c.007.278.165.416.473.416.152 0 .268-.034.348-.103.08-.072.122-.177.125-.314h.633c-.004.285-.097.502-.279.65s-.458.222-.827.222zM70.401 30.724c-.407 0-.776-.087-1.106-.262a2.034 2.034 0 01-.776-.736c-.186-.316-.279-.671-.279-1.066s.093-.749.279-1.061c.19-.316.449-.561.776-.736a2.297 2.297 0 011.112-.268c.346 0 .658.061.935.183.281.122.517.297.707.525l-.593.548a1.276 1.276 0 00-1.004-.468 1.32 1.32 0 00-.662.165 1.15 1.15 0 00-.456.451c-.106.194-.16.414-.16.662s.053.468.16.662c.11.194.262.346.456.456.194.106.414.16.662.16.399 0 .734-.158 1.004-.473l.593.548c-.19.232-.426.409-.707.53s-.595.183-.941.183zM75.224 29.047h-.639v1.608h-.918v-3.992h.918v1.614h.662l1.049-1.614h.975l-1.306 1.928 1.346 2.065h-1.049l-1.038-1.608zM78.771 26.663h.918v2.601l1.905-2.601h.867v3.992h-.913V28.06l-1.905 2.595h-.873v-3.992zM84.481 26.663h.918v2.601l1.905-2.601h.867v3.992h-.913V28.06l-1.905 2.595h-.873v-3.992zm1.843-.257c-.73 0-1.099-.291-1.106-.873h.633c.008.278.165.416.473.416.152 0 .268-.034.348-.103.08-.072.122-.177.125-.314h.633c-.004.285-.097.502-.279.65s-.458.222-.827.222zM73.153 14.987v2.836H62.736V4.848h10.176v2.836h-6.543v2.187h5.765v2.743h-5.765v2.373h6.784zM88.276 4.848v12.975h-3.021l-5.728-6.914v6.914h-3.596V4.848h3.021l5.728 6.914V4.848h3.596z"/><path fill="var(--color2, #ff6b09)" d="M57.546 11.09c-.189-.424-.451-.842-.833-1.325-.964-1.212-1.258-3.915-1.261-3.94a.325.325 0 00-.225-.275.331.331 0 00-.346.094c-1.15 1.286-.667 3.273-.405 4.067.072.217.15.473.206.732.425 2.097-.395 3.046-.588 3.237-.186.052-.314.026-.431-.101-.405-.444-.539-1.899-.35-3.795a3.906 3.906 0 00-.026-1.056c-.4-2.33-1.865-3.825-2.238-4.349C50.023 2.862 49.918.338 49.915.315a.326.326 0 00-.51-.256c-1.712 1.163-1.565 3.966-1.327 5.532.056.363.163.732.35 1.199.663 1.669-.131 3.824-.137 3.843s-.013.036-.016.055c-.101.531-.271.849-.461.849a.205.205 0 01-.062-.01c-.232-.049-.353-.295-.356-.509-.013-2.764-2.787-3.694-2.817-3.704a.325.325 0 00-.392.453c.033.068.137.366.065 1.419a12.078 12.078 0 01-.513 2.78 13.567 13.567 0 00-.549 4.287c.507 5.519 8.444 6.486 13.155 3.377.516-.34.938-.729 1.248-1.157 1.738-2.398.716-5.655-.046-7.385zm-12.074 5.272a.323.323 0 01-.307.34h-.02a.326.326 0 01-.327-.305c-.029-.473-.023-.969.013-1.507a.33.33 0 01.35-.301c.18.013.317.168.304.347-.036.512-.042.979-.013 1.426zm.16-2.871a.324.324 0 01-.323.285c-.013 0-.026 0-.042-.003a.327.327 0 01-.284-.36l.157-1.251a.33.33 0 01.366-.282c.18.023.307.185.284.363l-.157 1.248zM55.335 4.433a.325.325 0 01-.273-.369c.02-.132.138-.806.459-1.145.123-.131.33-.138.462-.015s.138.327.015.458c-.136.144-.251.554-.29.8a.327.327 0 01-.373.271zM43.423 6.048c-.063-.241-.218-.638-.367-.768-.136-.118-.149-.323-.03-.457s.325-.149.461-.03c.352.306.536.966.569 1.094a.324.324 0 01-.235.394.328.328 0 01-.398-.233z"/></symbol>

<symbol id="icon-logo-white"  viewBox="0 0 88 32"><path fill="var(--color1, #fff)" d="M12.345 4.848v12.975h-3.67v-5.06H3.67v5.06H0V4.848h3.67v4.875h5.005V4.848h3.67zM25.777 12.818c0 .025-.019.315-.056.871h-7.303c.148.519.433.921.853 1.205.433.272.97.408 1.613.408.482 0 .896-.068 1.242-.204a3.646 3.646 0 001.075-.667l1.854 1.928c-.976 1.087-2.403 1.631-4.282 1.631-1.174 0-2.206-.222-3.096-.667s-1.582-1.063-2.076-1.854c-.482-.791-.723-1.687-.723-2.688 0-.989.235-1.872.704-2.651.482-.791 1.143-1.409 1.983-1.854s1.786-.667 2.836-.667c1.001 0 1.909.21 2.725.63a4.586 4.586 0 011.928 1.798c.482.778.723 1.705.723 2.78zm-5.357-2.706c-.544 0-1.001.154-1.372.463-.358.309-.587.729-.686 1.26h4.115c-.099-.531-.334-.951-.704-1.26-.358-.309-.809-.463-1.353-.463zM28.142 4.069h3.522v13.753h-3.522V4.069zM34.694 4.069h3.522v13.753h-3.522V4.069zM3.328 29.8H1.474l-.354.855H.173l1.779-3.992h.913l1.785 3.992h-.97l-.354-.855zm-.291-.702l-.633-1.528-.633 1.528h1.266zM10.358 29.902v1.58h-.855v-.827H6.686v.827H5.83l.006-1.58h.16c.24-.008.409-.183.508-.525s.16-.831.183-1.466l.046-1.249h3.068v3.239h.559zm-2.857-1.905a8.441 8.441 0 01-.12 1.198c-.061.319-.154.555-.279.707h1.785v-2.487H7.518l-.017.582zM13.895 30.724c-.407 0-.776-.087-1.106-.262a2.041 2.041 0 01-.776-.736c-.186-.316-.28-.671-.28-1.066s.093-.749.28-1.061c.19-.316.449-.561.776-.736a2.3 2.3 0 011.112-.268c.346 0 .658.061.935.183.281.122.517.297.707.525l-.593.548a1.274 1.274 0 00-1.004-.468 1.32 1.32 0 00-.662.165 1.15 1.15 0 00-.456.451c-.106.194-.16.414-.16.662s.053.468.16.662c.11.194.262.346.456.456.194.106.414.16.662.16.399 0 .734-.158 1.004-.473l.593.548c-.19.232-.426.409-.707.53s-.595.183-.941.183zM18.717 29.047h-.639v1.608h-.918v-3.992h.918v1.614h.662l1.049-1.614h.975l-1.306 1.928 1.346 2.065h-1.049l-1.038-1.608zM22.264 26.663h.918v2.601l1.905-2.601h.867v3.992h-.913V28.06l-1.905 2.595h-.873v-3.992zM27.975 26.663h.918v2.601l1.905-2.601h.867v3.992h-.913V28.06l-1.905 2.595h-.873v-3.992zm1.842-.257c-.73 0-1.099-.291-1.106-.873h.633c.008.278.165.416.473.416.152 0 .268-.034.348-.103.08-.072.122-.177.126-.314h.633c-.004.285-.097.502-.279.65s-.458.222-.827.222zM39.031 29.8h-1.854l-.354.855h-.947l1.779-3.992h.912l1.785 3.992h-.969l-.354-.855zm-.291-.702l-.633-1.528-.633 1.528h1.266zM45.571 26.663v3.992h-.924v-1.637h-1.814v1.637h-.924v-3.992h.924v1.574h1.814v-1.574h.924zM50.41 27.416h-1.899l.006 3.239h-.918v-3.992h2.817l-.006.753zM55.069 26.663v3.992h-.913v-3.239h-1.369l-.028.833a8.581 8.581 0 01-.137 1.38c-.072.35-.194.62-.365.81-.167.186-.403.279-.707.279-.125 0-.278-.021-.456-.063l.057-.781a.567.567 0 00.165.023c.221 0 .374-.129.462-.388.087-.262.143-.671.165-1.226l.057-1.62h3.068zM57.092 26.663h.918v2.601l1.905-2.601h.867v3.992h-.913V28.06l-1.905 2.595h-.873v-3.992zM62.803 26.663h.918v2.601l1.905-2.601h.867v3.992h-.913V28.06l-1.905 2.595h-.873v-3.992zm1.842-.257c-.73 0-1.099-.291-1.107-.873h.633c.007.278.165.416.473.416.152 0 .268-.034.348-.103.08-.072.122-.177.125-.314h.633c-.004.285-.097.502-.279.65s-.458.222-.827.222zM70.401 30.724c-.407 0-.776-.087-1.106-.262a2.034 2.034 0 01-.776-.736c-.186-.316-.279-.671-.279-1.066s.093-.749.279-1.061c.19-.316.449-.561.776-.736a2.297 2.297 0 011.112-.268c.346 0 .658.061.935.183.281.122.517.297.707.525l-.593.548a1.276 1.276 0 00-1.004-.468 1.32 1.32 0 00-.662.165 1.15 1.15 0 00-.456.451c-.106.194-.16.414-.16.662s.053.468.16.662c.11.194.262.346.456.456.194.106.414.16.662.16.399 0 .734-.158 1.004-.473l.593.548c-.19.232-.426.409-.707.53s-.595.183-.941.183zM75.224 29.047h-.639v1.608h-.918v-3.992h.918v1.614h.662l1.049-1.614h.975l-1.306 1.928 1.346 2.065h-1.049l-1.038-1.608zM78.771 26.663h.918v2.601l1.905-2.601h.867v3.992h-.913V28.06l-1.905 2.595h-.873v-3.992zM84.481 26.663h.918v2.601l1.905-2.601h.867v3.992h-.913V28.06l-1.905 2.595h-.873v-3.992zm1.843-.257c-.73 0-1.099-.291-1.106-.873h.633c.008.278.165.416.473.416.152 0 .268-.034.348-.103.08-.072.122-.177.125-.314h.633c-.004.285-.097.502-.279.65s-.458.222-.827.222zM73.153 14.987v2.836H62.736V4.848h10.176v2.836h-6.543v2.187h5.765v2.743h-5.765v2.373h6.784zM88.276 4.848v12.975h-3.021l-5.728-6.914v6.914h-3.596V4.848h3.021l5.728 6.914V4.848h3.596z"/><path fill="var(--color2, #ff6b09)" d="M57.546 11.09c-.189-.424-.451-.842-.833-1.325-.964-1.212-1.258-3.915-1.261-3.94a.325.325 0 00-.225-.275.331.331 0 00-.346.094c-1.15 1.286-.667 3.273-.405 4.067.072.217.15.473.206.732.425 2.097-.395 3.046-.588 3.237-.186.052-.314.026-.431-.101-.405-.444-.539-1.899-.35-3.795a3.906 3.906 0 00-.026-1.056c-.4-2.33-1.865-3.825-2.238-4.349C50.023 2.862 49.918.338 49.915.315a.326.326 0 00-.51-.256c-1.712 1.163-1.565 3.966-1.327 5.532.056.363.163.732.35 1.199.663 1.669-.131 3.824-.137 3.843s-.013.036-.016.055c-.101.531-.271.849-.461.849a.205.205 0 01-.062-.01c-.232-.049-.353-.295-.356-.509-.013-2.764-2.787-3.694-2.817-3.704a.325.325 0 00-.392.453c.033.068.137.366.065 1.419a12.078 12.078 0 01-.513 2.78 13.567 13.567 0 00-.549 4.287c.507 5.519 8.444 6.486 13.155 3.377.516-.34.938-.729 1.248-1.157 1.738-2.398.716-5.655-.046-7.385zm-12.074 5.272a.323.323 0 01-.307.34h-.02a.326.326 0 01-.327-.305c-.029-.473-.023-.969.013-1.507a.33.33 0 01.35-.301c.18.013.317.168.304.347-.036.512-.042.979-.013 1.426zm.16-2.871a.324.324 0 01-.323.285c-.013 0-.026 0-.042-.003a.327.327 0 01-.284-.36l.157-1.251a.33.33 0 01.366-.282c.18.023.307.185.284.363l-.157 1.248zM55.335 4.433a.325.325 0 01-.273-.369c.02-.132.138-.806.459-1.145.123-.131.33-.138.462-.015s.138.327.015.458c-.136.144-.251.554-.29.8a.327.327 0 01-.373.271zM43.423 6.048c-.063-.241-.218-.638-.367-.768-.136-.118-.149-.323-.03-.457s.325-.149.461-.03c.352.306.536.966.569 1.094a.324.324 0 01-.235.394.328.328 0 01-.398-.233z"/></symbol>

<symbol id="icon-logo-orange" viewBox="0 0 91 32"><path fill="var(--color1, #111518)" d="M13.608 4.836v12.942H9.947v-5.047H4.955v5.047H1.294V4.836h3.661v4.863h4.992V4.836h3.661zm13.398 7.95c0 .025-.018.314-.055.869h-7.285c.148.518.432.918.851 1.202.432.271.967.407 1.609.407.481 0 .894-.068 1.239-.203a3.617 3.617 0 001.072-.666l1.849 1.923c-.974 1.084-2.397 1.627-4.271 1.627-1.171 0-2.2-.222-3.088-.666s-1.577-1.06-2.071-1.849c-.481-.789-.721-1.683-.721-2.681 0-.986.235-1.867.703-2.644a5.064 5.064 0 011.951-1.836l.027-.013c.838-.444 1.781-.666 2.829-.666.998 0 1.904.21 2.718.629a4.599 4.599 0 011.911 1.772l.012.021c.481.777.721 1.701.721 2.773zm-5.343-2.7c-.542 0-.998.154-1.368.462-.357.308-.585.727-.684 1.257h4.105c-.098-.53-.333-.949-.703-1.257-.357-.308-.807-.462-1.35-.462zm7.702-6.027h3.513v13.719h-3.513V4.059zm6.535 0h3.513v13.719H35.9V4.059z"/><path fill="var(--color2, #ff6b09)" d="M4.614 29.724H2.765l-.353.853h-.944l1.775-3.982h.91l1.781 3.982h-.967l-.353-.853zm-.29-.699L3.693 27.5l-.631 1.525h1.263zm7.303.802v1.576h-.853v-.825H7.963v.825H7.11l.006-1.576h.159c.24-.007.408-.182.507-.523s.159-.828.181-1.462l.046-1.246h3.06v3.231h.557zm-2.851-1.9a8.467 8.467 0 01-.126 1.245l.007-.051c-.061.319-.154.554-.279.705h1.781v-2.48H8.794l-.017.58zm6.378 2.719c-.405 0-.774-.087-1.104-.262a2.047 2.047 0 01-.769-.725l-.005-.009a2.034 2.034 0 01-.279-1.033v-.032.002a1.973 1.973 0 011.053-1.792 2.3 2.3 0 011.109-.267c.345 0 .656.06.933.182.281.121.516.296.705.523l-.592.546a1.272 1.272 0 00-1.001-.466c-.247 0-.466.055-.66.165a1.162 1.162 0 00-.452.444l-.003.006c-.107.193-.159.413-.159.66s.053.466.159.66c.11.193.262.345.455.455.193.107.413.159.66.159.398 0 .732-.157 1.001-.472l.592.546a1.855 1.855 0 01-.694.524l-.012.005a2.35 2.35 0 01-.939.182zm4.81-1.672h-.637v1.604h-.917v-3.982h.916v1.61h.66l1.047-1.61h.973l-1.303 1.923 1.343 2.059h-1.047l-1.035-1.604zm3.538-2.378h.916v2.594l1.9-2.594h.865v3.982h-.91V27.99l-1.9 2.588h-.87v-3.982zm5.696 0h.916v2.594l1.9-2.594h.865v3.982h-.91V27.99l-1.9 2.588h-.87v-3.982zm1.838-.256c-.728 0-1.096-.29-1.104-.87h.631c.007.277.165.415.472.415.151 0 .267-.034.347-.102.08-.072.121-.176.125-.313h.631c-.004.284-.097.501-.279.649s-.457.222-.825.222z"/><path fill="var(--color1, #111518)" d="M40.226 29.724h-1.849l-.353.853h-.944l1.775-3.982h.91l1.781 3.982h-.967l-.353-.853zm-.29-.699l-.631-1.525-.631 1.525h1.263zm6.815-2.429v3.982h-.922v-1.633H44.02v1.633h-.922v-3.982h.922v1.57h1.809v-1.57h.922zm4.826.75h-1.894l.006 3.231h-.916v-3.982h2.81l-.006.751zm4.647-.75v3.982h-.91v-3.231h-1.365l-.028.831a8.564 8.564 0 01-.137 1.377c-.073.348-.193.619-.364.808-.167.186-.403.279-.705.279-.125 0-.277-.021-.455-.063l.057-.779a.562.562 0 00.165.023c.22 0 .373-.129.461-.387.087-.262.142-.669.165-1.223l.057-1.616h3.061zm2.018 0h.916v2.594l1.9-2.594h.865v3.982h-.91V27.99l-1.901 2.588h-.87v-3.982zm5.696 0h.916v2.594l1.901-2.594h.865v3.982h-.91V27.99l-1.9 2.588h-.871v-3.982zm1.838-.256c-.729 0-1.097-.29-1.104-.87h.632c.007.277.164.415.471.415.152 0 .268-.034.348-.102a.415.415 0 00.124-.313h.631c-.004.284-.097.501-.279.649s-.457.222-.825.222zm5.742 4.306h-.032c-.392 0-.761-.097-1.085-.268l.013.006a2.047 2.047 0 01-.769-.725l-.005-.009a2.034 2.034 0 01-.279-1.033v-.032.002c0-.395.092-.747.279-1.058.189-.315.448-.56.774-.734a2.263 2.263 0 011.076-.268h.035-.002c.345 0 .656.06.933.182.28.121.516.296.705.523l-.592.546a1.271 1.271 0 00-1.001-.466c-.247 0-.466.055-.66.165a1.162 1.162 0 00-.452.444l-.003.006c-.107.193-.159.413-.159.66s.053.466.159.66c.11.193.262.345.455.455.193.107.413.159.66.159.398 0 .732-.157 1.001-.472l.592.546a1.86 1.86 0 01-.693.524l-.012.005a2.35 2.35 0 01-.939.182zm4.811-1.672h-.637v1.604h-.916v-3.982h.916v1.61h.66l1.047-1.61h.973l-1.303 1.923 1.343 2.059h-1.047l-1.035-1.604zm3.537-2.378h.916v2.594l1.9-2.594h.865v3.982h-.91V27.99l-1.9 2.588h-.87v-3.982zm5.696 0h.916v2.594l1.9-2.594h.865v3.982h-.91V27.99l-1.9 2.588h-.87v-3.982zm1.838-.256c-.728 0-1.096-.29-1.104-.87h.631c.008.277.165.415.472.415.151 0 .267-.034.347-.102.08-.072.122-.176.125-.313h.631c-.004.284-.097.501-.279.649s-.457.222-.825.222zM74.263 14.949v2.829H63.872V4.836h10.15v2.829h-6.527v2.182h5.75v2.736h-5.75v2.367h6.767zM89.348 4.836v12.942h-3.014l-5.713-6.896v6.896h-3.587V4.836h3.014l5.713 6.896V4.836h3.587z"/><path fill="var(--color2, #ff6b09)" d="M58.695 11.062c-.19-.424-.45-.841-.832-1.323-.961-1.209-1.254-3.904-1.258-3.93a.326.326 0 00-.222-.274l-.002-.001a.329.329 0 00-.345.094c-1.147 1.283-.665 3.264-.404 4.056.071.217.149.472.206.731.423 2.091-.395 3.038-.587 3.228-.186.052-.313.026-.43-.1-.405-.443-.538-1.894-.348-3.785a3.818 3.818 0 00-.03-1.076l.003.023c-.399-2.324-1.861-3.815-2.233-4.338C51.189 2.854 51.085.336 51.082.314a.325.325 0 00-.509-.255l.001-.001c-1.708 1.161-1.562 3.957-1.323 5.518.055.363.163.73.348 1.196.661 1.664-.13 3.814-.137 3.833-.007.02-.014.036-.016.055-.101.53-.27.847-.46.847a.219.219 0 01-.063-.01h.002c-.231-.048-.352-.294-.356-.507-.013-2.757-2.78-3.685-2.809-3.695s-.064-.016-.1-.016a.326.326 0 00-.246.113.316.316 0 00-.044.357l-.001-.002c.033.068.137.365.065 1.415a12.078 12.078 0 01-.535 2.859l.023-.085c-.658 2.147-.555 4.18-.548 4.277.506 5.505 8.423 6.47 13.122 3.369.515-.34.935-.727 1.244-1.154 1.734-2.392.714-5.641-.045-7.367zM46.651 16.32v.017a.322.322 0 01-.306.322h-.023a.325.325 0 01-.324-.303v-.001c-.029-.471-.023-.966.014-1.503a.33.33 0 01.349-.3h-.001c.17.012.304.153.304.325l-.001.022v-.001c-.036.511-.043.976-.013 1.422zm.159-2.864a.323.323 0 01-.321.284h-.001c-.014 0-.026 0-.043-.004a.327.327 0 01-.286-.324l.002-.036v.001l.156-1.248a.329.329 0 01.367-.28h-.002a.324.324 0 01.283.362l-.156 1.244zm9.679-9.034a.324.324 0 01-.272-.37v.002c.021-.132.139-.804.458-1.142a.327.327 0 01.461-.014.32.32 0 01.014.457c-.135.143-.25.553-.289.798a.327.327 0 01-.374.27h.002zm-11.881 1.61c-.063-.24-.218-.637-.366-.767a.32.32 0 01-.03-.456.326.326 0 01.46-.029c.351.306.535.963.567 1.092a.323.323 0 01-.232.393h-.002a.329.329 0 01-.397-.23l-.001-.002z"/></symbol>

<symbol id="icon-logo-tab-orange" viewBox="0 0 91 32"><path fill="#fff" style="fill: var(--color1, #fff)" d="M13.608 4.836v12.942h-3.661v-5.047h-4.992v5.047h-3.661v-12.942h3.661v4.863h4.992v-4.863h3.661zM27.006 12.786c0 0.025-0.018 0.314-0.055 0.869h-7.285c0.148 0.518 0.431 0.918 0.851 1.202 0.431 0.271 0.968 0.407 1.609 0.407 0.481 0 0.894-0.068 1.239-0.203 0.357-0.136 0.715-0.357 1.072-0.666l1.849 1.923c-0.974 1.085-2.397 1.627-4.271 1.627-1.171 0-2.2-0.222-3.088-0.666s-1.578-1.060-2.071-1.849c-0.481-0.789-0.721-1.683-0.721-2.681 0-0.986 0.234-1.867 0.703-2.644 0.481-0.789 1.14-1.405 1.978-1.849s1.781-0.666 2.829-0.666c0.998 0 1.904 0.21 2.718 0.629 0.814 0.407 1.454 1.005 1.923 1.793 0.481 0.777 0.721 1.701 0.721 2.773zM21.663 10.086c-0.542 0-0.998 0.154-1.368 0.462-0.357 0.308-0.586 0.727-0.684 1.257h4.105c-0.099-0.53-0.333-0.949-0.703-1.257-0.357-0.308-0.807-0.462-1.35-0.462zM29.365 4.059h3.513v13.719h-3.513v-13.719zM35.901 4.059h3.513v13.719h-3.513v-13.719z"></path><path fill="#ff6b09" style="fill: var(--color2, #ff6b09)" d="M4.614 29.724h-1.849l-0.353 0.853h-0.944l1.775-3.982h0.91l1.781 3.982h-0.967l-0.353-0.853zM4.324 29.025l-0.631-1.525-0.631 1.525h1.263zM11.626 29.827v1.576h-0.853v-0.825h-2.81v0.825h-0.853l0.006-1.576h0.159c0.239-0.008 0.408-0.182 0.506-0.523s0.159-0.829 0.182-1.462l0.045-1.246h3.061v3.231h0.557zM8.776 27.927c-0.019 0.474-0.059 0.872-0.119 1.195-0.061 0.319-0.154 0.554-0.279 0.705h1.781v-2.48h-1.365l-0.017 0.58zM15.154 30.646c-0.406 0-0.774-0.087-1.104-0.262-0.326-0.178-0.584-0.423-0.774-0.734-0.186-0.315-0.279-0.669-0.279-1.064s0.093-0.747 0.279-1.058c0.19-0.315 0.448-0.559 0.774-0.734 0.33-0.178 0.7-0.267 1.109-0.267 0.345 0 0.656 0.061 0.933 0.182 0.281 0.121 0.516 0.296 0.705 0.523l-0.592 0.546c-0.269-0.311-0.603-0.466-1.001-0.466-0.246 0-0.466 0.055-0.66 0.165-0.193 0.106-0.345 0.256-0.455 0.449-0.106 0.193-0.159 0.413-0.159 0.66s0.053 0.466 0.159 0.66c0.11 0.193 0.262 0.345 0.455 0.455 0.193 0.106 0.413 0.159 0.66 0.159 0.398 0 0.732-0.157 1.001-0.472l0.592 0.546c-0.19 0.231-0.425 0.408-0.705 0.529s-0.594 0.182-0.939 0.182zM19.964 28.974h-0.637v1.604h-0.916v-3.982h0.916v1.61h0.66l1.047-1.61h0.973l-1.303 1.923 1.343 2.059h-1.047l-1.035-1.604zM23.502 26.596h0.916v2.594l1.9-2.594h0.865v3.982h-0.91v-2.588l-1.9 2.588h-0.87v-3.982zM29.198 26.596h0.916v2.594l1.9-2.594h0.865v3.982h-0.91v-2.588l-1.9 2.588h-0.87v-3.982zM31.036 26.34c-0.728 0-1.096-0.29-1.104-0.87h0.631c0.008 0.277 0.165 0.415 0.472 0.415 0.152 0 0.267-0.034 0.347-0.102 0.080-0.072 0.121-0.176 0.125-0.313h0.631c-0.004 0.284-0.097 0.501-0.279 0.649s-0.457 0.222-0.825 0.222z"></path><path fill="#fff" style="fill: var(--color1, #fff)" d="M40.226 29.724h-1.849l-0.353 0.853h-0.944l1.775-3.982h0.91l1.781 3.982h-0.967l-0.353-0.853zM39.936 29.025l-0.631-1.525-0.631 1.525h1.263zM46.75 26.596v3.982h-0.922v-1.633h-1.809v1.633h-0.922v-3.982h0.922v1.57h1.809v-1.57h0.922zM51.577 27.346h-1.894l0.006 3.231h-0.916v-3.982h2.81l-0.006 0.751zM56.224 26.596v3.982h-0.91v-3.231h-1.365l-0.028 0.831c-0.019 0.565-0.065 1.024-0.137 1.377-0.072 0.349-0.193 0.618-0.364 0.808-0.167 0.186-0.402 0.279-0.705 0.279-0.125 0-0.277-0.021-0.455-0.063l0.057-0.779c0.049 0.015 0.104 0.023 0.165 0.023 0.22 0 0.374-0.129 0.461-0.387 0.087-0.262 0.142-0.669 0.165-1.223l0.057-1.616h3.061zM58.242 26.596h0.916v2.594l1.9-2.594h0.865v3.982h-0.91v-2.588l-1.9 2.588h-0.87v-3.982zM63.938 26.596h0.916v2.594l1.9-2.594h0.865v3.982h-0.91v-2.588l-1.9 2.588h-0.87v-3.982zM65.776 26.34c-0.728 0-1.096-0.29-1.104-0.87h0.631c0.008 0.277 0.165 0.415 0.472 0.415 0.152 0 0.267-0.034 0.347-0.102 0.080-0.072 0.121-0.176 0.125-0.313h0.631c-0.004 0.284-0.097 0.501-0.279 0.649s-0.457 0.222-0.825 0.222zM71.518 30.646c-0.406 0-0.774-0.087-1.104-0.262-0.326-0.178-0.584-0.423-0.774-0.734-0.186-0.315-0.279-0.669-0.279-1.064s0.093-0.747 0.279-1.058c0.19-0.315 0.448-0.559 0.774-0.734 0.33-0.178 0.7-0.267 1.109-0.267 0.345 0 0.656 0.061 0.933 0.182 0.28 0.121 0.516 0.296 0.705 0.523l-0.592 0.546c-0.269-0.311-0.603-0.466-1.001-0.466-0.247 0-0.467 0.055-0.66 0.165-0.193 0.106-0.345 0.256-0.455 0.449-0.106 0.193-0.159 0.413-0.159 0.66s0.053 0.466 0.159 0.66c0.11 0.193 0.262 0.345 0.455 0.455 0.193 0.106 0.413 0.159 0.66 0.159 0.398 0 0.732-0.157 1.001-0.472l0.592 0.546c-0.19 0.231-0.425 0.408-0.705 0.529s-0.594 0.182-0.939 0.182zM76.329 28.974h-0.637v1.604h-0.916v-3.982h0.916v1.61h0.66l1.047-1.61h0.973l-1.303 1.923 1.343 2.059h-1.047l-1.035-1.604zM79.866 26.596h0.916v2.594l1.9-2.594h0.865v3.982h-0.91v-2.588l-1.9 2.588h-0.87v-3.982zM85.562 26.596h0.916v2.594l1.9-2.594h0.865v3.982h-0.91v-2.588l-1.9 2.588h-0.87v-3.982zM87.4 26.34c-0.728 0-1.096-0.29-1.104-0.87h0.631c0.008 0.277 0.165 0.415 0.472 0.415 0.151 0 0.267-0.034 0.347-0.102 0.080-0.072 0.122-0.176 0.125-0.313h0.631c-0.004 0.284-0.097 0.501-0.279 0.649s-0.457 0.222-0.825 0.222z"></path><path fill="#fff" style="fill: var(--color1, #fff)" d="M74.263 14.949v2.829h-10.391v-12.942h10.15v2.829h-6.527v2.182h5.75v2.736h-5.75v2.367h6.767zM89.348 4.836v12.942h-3.014l-5.713-6.896v6.896h-3.587v-12.942h3.014l5.713 6.896v-6.896h3.587z"></path><path fill="#ff6b09" style="fill: var(--color2, #ff6b09)" d="M58.695 11.062c-0.189-0.423-0.45-0.84-0.831-1.322-0.962-1.209-1.255-3.905-1.258-3.931-0.013-0.129-0.104-0.236-0.225-0.275-0.124-0.039-0.257-0.003-0.345 0.094-1.147 1.283-0.665 3.265-0.404 4.057 0.072 0.217 0.15 0.472 0.205 0.731 0.424 2.091-0.394 3.038-0.587 3.229-0.186 0.052-0.313 0.026-0.43-0.1-0.404-0.443-0.538-1.894-0.349-3.785 0.039-0.385 0.029-0.731-0.026-1.054-0.399-2.324-1.86-3.815-2.233-4.338-1.023-1.513-1.128-4.031-1.131-4.053-0.003-0.12-0.072-0.226-0.179-0.278-0.104-0.052-0.231-0.045-0.329 0.023-1.708 1.16-1.561 3.956-1.323 5.518 0.055 0.362 0.163 0.731 0.349 1.196 0.662 1.665-0.13 3.814-0.137 3.834s-0.013 0.036-0.016 0.055c-0.101 0.53-0.27 0.847-0.46 0.847-0.020 0-0.039-0.003-0.062-0.010-0.231-0.048-0.352-0.294-0.355-0.507-0.013-2.757-2.78-3.685-2.81-3.694-0.124-0.039-0.261-0.003-0.345 0.097-0.088 0.1-0.104 0.239-0.046 0.356 0.033 0.068 0.137 0.365 0.065 1.416-0.062 0.944-0.235 1.878-0.512 2.773-0.658 2.146-0.554 4.179-0.548 4.276 0.506 5.505 8.423 6.469 13.122 3.368 0.515-0.339 0.935-0.727 1.245-1.154 1.734-2.392 0.714-5.64-0.046-7.366zM46.652 16.321c0.010 0.178-0.127 0.33-0.306 0.339h-0.020c-0.173 0-0.316-0.132-0.326-0.304-0.029-0.472-0.023-0.966 0.013-1.503 0.013-0.178 0.169-0.31 0.349-0.301 0.179 0.013 0.316 0.168 0.303 0.346-0.036 0.511-0.042 0.976-0.013 1.422zM46.811 13.457c-0.020 0.165-0.16 0.284-0.323 0.284-0.013 0-0.026 0-0.042-0.003-0.176-0.023-0.303-0.181-0.284-0.359l0.156-1.248c0.023-0.175 0.182-0.301 0.365-0.281 0.179 0.023 0.306 0.184 0.284 0.362l-0.156 1.244z"></path><path fill="#ff6b09" style="fill: var(--color2, #ff6b09)" d="M56.489 4.422c-0.178-0.027-0.3-0.192-0.272-0.368 0.020-0.131 0.138-0.804 0.458-1.142 0.123-0.13 0.329-0.137 0.461-0.015s0.138 0.327 0.015 0.457c-0.135 0.143-0.251 0.553-0.289 0.798-0.028 0.174-0.192 0.297-0.372 0.27z"></path><path fill="#ff6b09" style="fill: var(--color2, #ff6b09)" d="M44.608 6.032c-0.062-0.24-0.217-0.637-0.366-0.766-0.135-0.118-0.149-0.322-0.030-0.456s0.324-0.148 0.46-0.030c0.351 0.305 0.535 0.963 0.568 1.092 0.045 0.173-0.060 0.349-0.235 0.393-0.178 0.044-0.353-0.063-0.397-0.232z"></path></symbol>

<!-- Мобильное меню -->

<symbol id="icon-mob-menu-open" viewBox="0 0 32 32"><path d="M6.4 11.733V9.6h19.2v2.133H6.4zm0 5.334h19.2v-2.133H6.4v2.133zm0 5.333h19.2v-2.133H6.4V22.4z"/></symbol>
<symbol id="icon-mob-menu-close" viewBox="0 0 32 32"><path d="M23.733 10.304L22.229 8.8l-5.963 5.963L10.303 8.8l-1.504 1.504 5.963 5.963-5.963 5.963 1.504 1.504 5.963-5.963 5.963 5.963 1.504-1.504-5.963-5.963 5.963-5.963z"/></symbol>

</defs></svg>